<svg width="20" height="20" viewBox="0 0 20 20" fill="none" xmlns="http://www.w3.org/2000/svg">
<path d="M2.23071 7.66797C2.23071 6.81807 2.44306 6.03036 2.86775 5.30484C3.28208 4.61042 3.83625 4.05591 4.53026 3.64133C5.25535 3.21638 6.04258 3.00391 6.89196 3.00391H13.107C13.946 3.00391 14.728 3.21638 15.4531 3.64133C16.1575 4.05591 16.7168 4.6156 17.1312 5.32039C17.5559 6.04591 17.7682 6.82844 17.7682 7.66797V16.9961H6.89196C6.05294 16.9961 5.27088 16.7836 4.5458 16.3587C3.84143 15.9441 3.28208 15.3844 2.86775 14.6796C2.44306 13.9541 2.23071 13.1716 2.23071 12.332V7.66797ZM16.2145 15.4414V7.66797C16.2145 7.10828 16.0746 6.59005 15.795 6.11328C15.5153 5.63651 15.1372 5.2582 14.6607 4.97836C14.1842 4.69852 13.6663 4.55859 13.107 4.55859H6.89196C6.33261 4.55859 5.8147 4.69852 5.33821 4.97836C4.86173 5.2582 4.48365 5.63392 4.20398 6.10551C3.9243 6.5771 3.78446 7.09792 3.78446 7.66797V12.332C3.78446 12.8917 3.9243 13.4099 4.20398 13.8867C4.48365 14.3635 4.86173 14.7418 5.33821 15.0216C5.8147 15.3015 6.33261 15.4414 6.89196 15.4414H16.2145ZM11.5532 9.22266H13.107V10.7773H11.5532V9.22266ZM6.89196 9.22266H8.44571V10.7773H6.89196V9.22266Z" fill="black"/>
</svg>
