<svg width="21" height="20" viewBox="0 0 21 20"  xmlns="http://www.w3.org/2000/svg">
<path d="M4.40995 4.55859V15.4414H16.84V6.11328H10.2987L8.74491 4.55859H4.40995ZM10.9512 4.55859H17.6168C17.8344 4.55859 18.0182 4.63374 18.1684 4.78402C18.3186 4.93431 18.3937 5.11828 18.3937 5.33594V16.2188C18.3937 16.4364 18.3186 16.6204 18.1684 16.7707C18.0182 16.921 17.8344 16.9961 17.6168 16.9961H3.63308C3.41555 16.9961 3.23169 16.921 3.08149 16.7707C2.9313 16.6204 2.8562 16.4364 2.8562 16.2188V3.78125C2.8562 3.56359 2.9313 3.37962 3.08149 3.22934C3.23169 3.07905 3.41555 3.00391 3.63308 3.00391H9.39749L10.9512 4.55859Z" />
</svg>
