<svg width="20" height="20" viewBox="0 0 20 20"  xmlns="http://www.w3.org/2000/svg">
<path d="M4.55399 11.5547H15.4302V3.78125H4.55399V11.5547ZM4.55399 13.1094V16.2188H15.4302V13.1094H4.55399ZM3.77712 2.22656H16.2071C16.4246 2.22656 16.6085 2.30171 16.7587 2.45199C16.9089 2.60228 16.984 2.78625 16.984 3.00391V16.9961C16.984 17.2138 16.9089 17.3977 16.7587 17.548C16.6085 17.6983 16.4246 17.7734 16.2071 17.7734H3.77712C3.55959 17.7734 3.37573 17.6983 3.22554 17.548C3.07534 17.3977 3.00024 17.2138 3.00024 16.9961V3.00391C3.00024 2.78625 3.07534 2.60228 3.22554 2.45199C3.37573 2.30171 3.55959 2.22656 3.77712 2.22656ZM12.3227 13.8867H13.8765V15.4414H12.3227V13.8867Z" />
</svg>
