<svg width="20" height="20" viewBox="0 0 20 20"  xmlns="http://www.w3.org/2000/svg">
<path d="M2.88308 16.9961C2.66555 16.9961 2.48169 16.921 2.33149 16.7707C2.1813 16.6204 2.1062 16.4364 2.1062 16.2188V3.78125C2.1062 3.56359 2.1813 3.37962 2.33149 3.22934C2.48169 3.07905 2.66555 3.00391 2.88308 3.00391H16.8668C17.0844 3.00391 17.2682 3.07905 17.4184 3.22934C17.5686 3.37962 17.6437 3.56359 17.6437 3.78125V16.2188C17.6437 16.4364 17.5686 16.6204 17.4184 16.7707C17.2682 16.921 17.0844 16.9961 16.8668 16.9961H2.88308ZM16.09 12.332V4.55859H3.65995V15.4414L11.4287 7.66797L16.09 12.332ZM16.09 14.5241L11.4287 9.86008L5.85074 15.4414H16.09V14.5241ZM6.76745 9.22266C6.48778 9.22266 6.22882 9.1527 5.99058 9.01277C5.75233 8.87285 5.56329 8.6837 5.42346 8.44531C5.28362 8.20693 5.2137 7.94781 5.2137 7.66797C5.2137 7.38813 5.28362 7.12901 5.42346 6.89062C5.56329 6.65224 5.75233 6.46309 5.99058 6.32316C6.22882 6.18324 6.48778 6.11328 6.76745 6.11328C7.04713 6.11328 7.30608 6.18324 7.54433 6.32316C7.78257 6.46309 7.97161 6.65224 8.11144 6.89062C8.25128 7.12901 8.3212 7.38813 8.3212 7.66797C8.3212 7.94781 8.25128 8.20693 8.11144 8.44531C7.97161 8.6837 7.78257 8.87285 7.54433 9.01277C7.30608 9.1527 7.04713 9.22266 6.76745 9.22266Z" />
</svg>
