<svg width="20" height="20" viewBox="0 0 20 20"  xmlns="http://www.w3.org/2000/svg">
<path d="M3.90991 18.1621C3.90991 17.0324 4.19477 15.9855 4.76447 15.0216C5.31347 14.0888 6.05409 13.3478 6.98634 12.7984C7.94966 12.2284 8.99585 11.9434 10.1249 11.9434C11.254 11.9434 12.3002 12.2284 13.2635 12.7984C14.1957 13.3478 14.9364 14.0888 15.4853 15.0216C16.0551 15.9855 16.3399 17.0324 16.3399 18.1621H14.7862C14.7862 17.3226 14.5738 16.5401 14.1491 15.8145C13.7348 15.1097 13.1754 14.5501 12.4711 14.1355C11.746 13.7105 10.9639 13.498 10.1249 13.498C9.28589 13.498 8.50383 13.7105 7.77875 14.1355C7.07438 14.5501 6.51503 15.1097 6.1007 15.8145C5.67601 16.5401 5.46366 17.3226 5.46366 18.1621H3.90991ZM10.1249 11.166C9.27553 11.166 8.49347 10.9535 7.77875 10.5286C7.07438 10.114 6.51503 9.55432 6.1007 8.84953C5.67601 8.13437 5.46366 7.35185 5.46366 6.50195C5.46366 5.65206 5.67601 4.86953 6.1007 4.15438C6.51503 3.44958 7.07438 2.8899 7.77875 2.47531C8.49347 2.05037 9.27553 1.83789 10.1249 1.83789C10.9743 1.83789 11.7563 2.05037 12.4711 2.47531C13.1754 2.8899 13.7348 3.44958 14.1491 4.15438C14.5738 4.86953 14.7862 5.65206 14.7862 6.50195C14.7862 7.35185 14.5738 8.13437 14.1491 8.84953C13.7348 9.55432 13.1754 10.114 12.4711 10.5286C11.7563 10.9535 10.9743 11.166 10.1249 11.166ZM10.1249 9.61133C10.6843 9.61133 11.2022 9.47141 11.6787 9.19156C12.1551 8.91172 12.5332 8.53341 12.8129 8.05664C13.0926 7.57987 13.2324 7.06164 13.2324 6.50195C13.2324 5.94227 13.0926 5.42404 12.8129 4.94727C12.5332 4.47049 12.1551 4.09219 11.6787 3.81234C11.2022 3.5325 10.6843 3.39258 10.1249 3.39258C9.56556 3.39258 9.04765 3.5325 8.57116 3.81234C8.09468 4.09219 7.7166 4.47049 7.43692 4.94727C7.15725 5.42404 7.01741 5.94227 7.01741 6.50195C7.01741 7.06164 7.15725 7.57987 7.43692 8.05664C7.7166 8.53341 8.09468 8.91172 8.57116 9.19156C9.04765 9.47141 9.56556 9.61133 10.1249 9.61133Z"/>
</svg>
