<svg width="21" height="20" viewBox="0 0 21 20"  xmlns="http://www.w3.org/2000/svg">
<path d="M14.943 13.467L18.268 16.794L17.1649 17.8978L13.8398 14.5708C13.2287 15.0579 12.5606 15.4311 11.8355 15.6902C11.069 15.9597 10.2818 16.0944 9.47381 16.0944C8.21009 16.0944 7.03442 15.7783 5.9468 15.146C4.89025 14.5242 4.0564 13.6846 3.44526 12.6274C2.80304 11.5392 2.48193 10.3628 2.48193 9.0983C2.48193 7.83382 2.80304 6.65744 3.44526 5.56915C4.0564 4.51197 4.89025 3.67762 5.9468 3.06611C7.03442 2.4235 8.21009 2.1022 9.47381 2.1022C10.7375 2.1022 11.9132 2.4235 13.0008 3.06611C14.0574 3.67762 14.8964 4.51197 15.5179 5.56915C16.1498 6.65744 16.4657 7.83382 16.4657 9.0983C16.4657 9.90673 16.331 10.6944 16.0617 11.4614C15.8028 12.1869 15.4299 12.8555 14.943 13.467ZM13.3737 12.8917C13.8606 12.3942 14.2386 11.8242 14.508 11.1816C14.7773 10.5182 14.9119 9.82382 14.9119 9.0983C14.9119 8.11366 14.6633 7.19639 14.1661 6.3465C13.6897 5.5277 13.0423 4.87991 12.2239 4.40314C11.3746 3.90564 10.4579 3.65689 9.47381 3.65689C8.48977 3.65689 7.57305 3.90564 6.72367 4.40314C5.90536 4.87991 5.25797 5.5277 4.78148 6.3465C4.28428 7.19639 4.03568 8.11366 4.03568 9.0983C4.03568 10.0829 4.28428 11.0002 4.78148 11.8501C5.25797 12.6689 5.90536 13.3167 6.72367 13.7935C7.57305 14.291 8.48977 14.5397 9.47381 14.5397C10.1989 14.5397 10.8929 14.405 11.5558 14.1355C12.1981 13.866 12.7678 13.4877 13.265 13.0006L13.3737 12.8917Z" />
</svg>
